# xmcd CD database file
#
# Track frame offsets:
#	150
#	21095
#	49730
#	70780
#	94975
#	117097
#	136312
#	161990
#	181530
#	206177
#
# Disc length: 3095 seconds
#
# Revision: 1
# Processed by: cddbd v1.5.2PL0 Copyright (c) Steve Scherf et al.
# Submitted via: CDex 1.70beta2
#
DISCID=880c150a
DTITLE=黒田倫弘 - SEED
DYEAR=2004
DGENRE=Rock
TTITLE0=龍胆～RINDOU～
TTITLE1=WATER COLORS
TTITLE2=エモーション
TTITLE3=しあわせの糸
TTITLE4=ハート
TTITLE5=黄昏タクティクス
TTITLE6=GYPSY count nine
TTITLE7=ポエポエ
TTITLE8=Dancing in the rain
TTITLE9=daughter beyond ashes
EXTD=YEAR: 2004
EXTT0=
EXTT1=
EXTT2=
EXTT3=
EXTT4=
EXTT5=
EXTT6=
EXTT7=
EXTT8=
EXTT9=
PLAYORDER=
